<svg xmlns="http://www.w3.org/2000/svg" viewBox="0 0 258.45 244.16"><defs><style>.a,.b{fill:#231f20;}.b{font-size:78.98px;font-family:qontra-Regular, qontra;}</style></defs><title>QM_logo_2</title><path class="a" d="M66.66,153.43c-3,.16-6.25.33-9.76.33-44.8,0-51-15.68-51-60.23v-.17C5.85,47.81,12.1,32,56.9,32S108,47.81,108,93.36v.17c0,29.53-2.75,46.38-17.77,54.39C85.06,151.15,79.9,152.52,66.66,153.43Zm-42-59.9c0,38.71,3.75,47.38,32.28,47.38s32.29-8.67,32.29-47.38v-.17c0-39.71-3.75-48.56-32.29-48.56S24.62,53.65,24.62,93.36Z" transform="translate(-5.85 -12.99)"/><text class="b" transform="translate(107.8 67.53)">ueer</text><path class="a" d="M163,240.45H143.78V124.78l-27.72,44.79h-21L67.61,125v115.5H48.37V91.31H67.61l38,61.44,38.21-61.44H163Z" transform="translate(-5.85 -12.99)"/><text class="b" transform="translate(161.3 139.53)">ade</text><rect class="a" x="17.3" y="161.67" width="71.5" height="19.23"/><polygon class="a" points="88.8 194.93 88.8 214.16 53.05 244.16 17.3 214.16 17.3 194.93 53.05 224.93 88.8 194.93"/></svg>